<svg width="1436" height="921" viewBox="0 0 1436 921" fill="none" xmlns="http://www.w3.org/2000/svg">
<rect width="1440" height="921" transform="translate(-4)" fill="#1A1313"/>
<path d="M1324.66 327.431V344.711L1339.76 353.351L1354.85 344.711V327.431L1339.76 318.791L1324.66 327.431Z" fill="#666666"/>
<path d="M1339.76 362.524L1316.65 349.292V322.845L1339.76 309.619L1362.87 322.845V349.292L1339.76 362.524ZM1318.1 348.465L1339.76 360.874L1361.43 348.465V323.672L1339.76 311.263L1318.1 323.672V348.465Z" fill="#666666"/>
<path d="M1339.76 374.302L1306.38 355.171V316.956L1339.76 297.825L1373.15 316.956V355.187L1339.76 374.302ZM1307.8 354.359L1339.76 372.642L1371.71 354.359V317.783L1339.76 299.5L1307.8 317.783V354.359Z" fill="#666666"/>
<path d="M1339.76 386.132L1296 361.102V311.031L1339.74 286L1383.5 311.031V361.092L1339.76 386.132ZM1297.47 360.28L1339.76 384.452L1382.07 360.269V311.873L1339.78 287.67L1297.49 311.873L1297.47 360.28Z" fill="#666666"/>
<mask id="mask0_90_847" style="mask-type:luminance" maskUnits="userSpaceOnUse" x="1144" y="531" width="181" height="98">
<path d="M1324.77 531H1144V628.361H1324.77V531Z" fill="white"/>
</mask>
<g mask="url(#mask0_90_847)">
<path d="M1157.68 548.114L1127.79 525.566L1128.82 523.978L1157.68 545.752L1187.06 523.591L1216.44 545.752L1245.83 523.591L1275.21 545.752L1304.62 523.591L1334.54 546.139L1333.5 547.727L1304.62 525.959L1275.21 548.114L1245.83 525.959L1216.44 548.114L1187.06 525.959L1157.68 548.114Z" fill="#666666"/>
<path d="M1157.68 571.583L1127.79 549.035L1128.82 547.447L1157.68 569.221L1187.06 547.06L1216.44 569.221L1245.83 547.06L1275.21 569.221L1304.62 547.06L1334.54 569.608L1333.5 571.196L1304.62 549.423L1275.21 571.583L1245.83 549.423L1216.44 571.583L1187.06 549.423L1157.68 571.583Z" fill="#666666"/>
<path d="M1157.68 595.052L1127.79 572.504L1128.82 570.916L1157.68 592.684L1187.06 570.529L1216.44 592.684L1245.83 570.529L1275.21 592.684L1304.62 570.529L1334.54 593.072L1333.5 594.665L1304.62 572.892L1275.21 595.052L1245.83 572.892L1216.44 595.052L1187.06 572.892L1157.68 595.052Z" fill="#666666"/>
<path d="M1157.68 618.521L1127.79 595.973L1128.82 594.385L1157.68 616.153L1187.06 593.993L1216.44 616.153L1245.83 593.993L1275.21 616.153L1304.62 593.993L1334.54 616.541L1333.5 618.134L1304.62 596.361L1275.21 618.521L1245.83 596.361L1216.44 618.521L1187.06 596.361L1157.68 618.521Z" fill="#666666"/>
<path d="M1157.68 641.991L1127.79 619.437L1128.82 617.855L1157.68 639.622L1187.06 617.462L1216.44 639.622L1245.83 617.462L1275.21 639.622L1304.62 617.462L1334.54 640.01L1333.5 641.603L1304.62 619.83L1275.21 641.991L1245.83 619.83L1216.44 641.991L1187.06 619.83L1157.68 641.991Z" fill="#666666"/>
</g>
<mask id="mask1_90_847" style="mask-type:luminance" maskUnits="userSpaceOnUse" x="78" y="414" width="150" height="138">
<path d="M206 531.5C235.271 504.714 235.271 461.286 206 434.5C176.729 407.714 129.271 407.714 100 434.5C70.7289 461.286 70.7289 504.714 100 531.5C129.271 558.286 176.729 558.286 206 531.5Z" fill="white"/>
</mask>
<g mask="url(#mask1_90_847)">
<path d="M233.709 549.121C225.359 549.121 221.187 545.303 217.145 541.604C213.239 538.035 209.548 534.657 202.08 534.657C194.612 534.657 190.921 538.035 187.015 541.604C182.978 545.303 178.801 549.121 170.451 549.121C162.102 549.121 157.936 545.303 153.899 541.604C149.993 538.035 146.307 534.657 138.845 534.657C131.383 534.657 127.692 538.035 123.786 541.604C119.749 545.303 115.572 549.121 107.228 549.121C98.8842 549.121 94.7123 545.303 90.676 541.604C86.7754 538.035 83.084 534.657 75.6277 534.657V532.717C83.9659 532.717 88.1378 536.54 92.174 540.234C96.0803 543.808 99.766 547.181 107.228 547.181C114.69 547.181 118.381 543.808 122.288 540.234C126.33 536.54 130.501 532.717 138.845 532.717C147.189 532.717 151.361 536.54 155.397 540.234C159.304 543.808 162.989 547.181 170.451 547.181C177.913 547.181 181.61 543.808 185.517 540.234C189.553 536.54 193.73 532.717 202.08 532.717C210.429 532.717 214.601 536.54 218.643 540.234C222.55 543.808 226.241 547.181 233.709 547.181V549.121Z" fill="#666666"/>
<path d="M233.708 526.023C225.359 526.023 221.187 522.205 217.145 518.507C213.239 514.937 209.548 511.559 202.08 511.559C194.612 511.559 190.921 514.937 187.015 518.507C182.978 522.205 178.801 526.023 170.451 526.023C162.102 526.023 157.936 522.221 153.877 518.522C149.97 514.953 146.285 511.575 138.823 511.575C131.361 511.575 127.669 514.953 123.763 518.522C119.727 522.221 115.549 526.039 107.205 526.039C98.8615 526.039 94.6896 522.221 90.6533 518.522C86.7527 514.953 83.0613 511.575 75.605 511.575V509.635C83.9432 509.635 88.1151 513.458 92.1514 517.151C96.0576 520.726 99.7434 524.099 107.205 524.099C114.667 524.099 118.359 520.726 122.265 517.151C126.307 513.458 130.479 509.635 138.823 509.635C147.167 509.635 151.338 513.458 155.375 517.151C159.281 520.726 162.967 524.099 170.429 524.099C177.891 524.099 181.588 520.726 185.494 517.151C189.53 513.458 193.708 509.635 202.057 509.635C210.407 509.635 214.579 513.458 218.621 517.151C222.527 520.726 226.218 524.099 233.686 524.099L233.708 526.023Z" fill="#666666"/>
<path d="M233.709 502.957C225.359 502.957 221.187 499.139 217.145 495.44C213.239 491.866 209.548 488.493 202.08 488.493C194.612 488.493 190.921 491.866 187.015 495.44C182.978 499.139 178.801 502.957 170.451 502.957C162.102 502.957 157.936 499.123 153.877 495.44C149.97 491.866 146.285 488.493 138.823 488.493C131.361 488.493 127.669 491.866 123.763 495.44C119.727 499.139 115.549 502.957 107.205 502.957C98.8616 502.957 94.7123 499.123 90.676 495.44C86.7754 491.866 83.084 488.493 75.6277 488.493V486.553C83.9659 486.553 88.1378 490.371 92.174 494.069C96.0803 497.644 99.766 501.017 107.228 501.017C114.69 501.017 118.381 497.644 122.288 494.069C126.33 490.371 130.501 486.553 138.845 486.553C147.189 486.553 151.361 490.371 155.397 494.069C159.304 497.644 162.989 501.017 170.451 501.017C177.913 501.017 181.61 497.644 185.517 494.069C189.553 490.371 193.73 486.553 202.08 486.553C210.429 486.553 214.601 490.371 218.643 494.069C222.55 497.644 226.241 501.017 233.709 501.017V502.957Z" fill="#666666"/>
<path d="M233.708 479.875C225.359 479.875 221.187 476.052 217.145 472.358C213.239 468.784 209.548 465.411 202.08 465.411C194.612 465.411 190.921 468.784 187.015 472.358C182.978 476.052 178.801 479.875 170.451 479.875C162.102 479.875 157.936 476.052 153.877 472.358C149.97 468.784 146.285 465.411 138.823 465.411C131.361 465.411 127.669 468.784 123.763 472.358C119.727 476.052 115.549 479.875 107.205 479.875C98.8615 479.875 94.6896 476.052 90.6533 472.358C86.7527 468.784 83.0613 465.411 75.605 465.411V463.471C83.9432 463.471 88.1151 467.289 92.1514 470.987C96.0576 474.562 99.7434 477.935 107.205 477.935C114.667 477.935 118.359 474.562 122.265 470.987C126.307 467.289 130.479 463.471 138.823 463.471C147.167 463.471 151.338 467.289 155.375 470.987C159.281 474.562 162.967 477.935 170.429 477.935C177.891 477.935 181.588 474.562 185.494 470.987C189.53 467.289 193.708 463.471 202.057 463.471C210.407 463.471 214.579 467.289 218.621 470.987C222.549 474.562 226.235 477.914 233.708 477.914V479.875Z" fill="#666666"/>
<path d="M233.709 456.792C225.359 456.792 221.187 452.97 217.145 449.276C213.239 445.701 209.548 442.329 202.08 442.329C194.612 442.329 190.921 445.701 187.015 449.276C182.978 452.97 178.801 456.792 170.451 456.792C162.102 456.792 157.936 452.97 153.899 449.276C149.993 445.701 146.307 442.329 138.845 442.329C131.383 442.329 127.692 445.701 123.786 449.276C119.749 452.97 115.572 456.792 107.228 456.792C98.8842 456.792 94.7123 452.97 90.676 449.276C86.7754 445.701 83.084 442.329 75.6277 442.329V440.389C83.9659 440.389 88.1378 444.206 92.174 447.905C96.0803 451.474 99.766 454.853 107.228 454.853C114.69 454.853 118.381 451.474 122.288 447.905C126.33 444.206 130.501 440.389 138.845 440.389C147.189 440.389 151.361 444.206 155.397 447.905C159.304 451.474 162.989 454.853 170.451 454.853C177.913 454.853 181.61 451.475 185.534 447.91C189.57 444.212 193.747 440.394 202.097 440.394C210.446 440.394 214.618 444.212 218.66 447.91C222.566 451.48 226.258 454.858 233.726 454.858L233.709 456.792Z" fill="#666666"/>
<path d="M233.709 433.71C225.359 433.71 221.187 429.887 217.145 426.194C213.239 422.619 209.548 419.241 202.08 419.241C194.612 419.241 190.921 422.619 187.015 426.194C182.978 429.887 178.801 433.71 170.451 433.71C162.102 433.71 157.936 429.887 153.877 426.183C149.97 422.609 146.285 419.231 138.823 419.231C131.361 419.231 127.669 422.609 123.763 426.183C119.727 429.877 115.549 433.7 107.205 433.7C98.8616 433.7 94.7123 429.887 90.676 426.183C86.7754 422.609 83.084 419.231 75.6277 419.231V417.291C83.9659 417.291 88.1378 421.114 92.174 424.813C96.0803 428.382 99.766 431.76 107.228 431.76C114.69 431.76 118.381 428.382 122.288 424.813C126.33 421.114 130.501 417.291 138.845 417.291C147.189 417.291 151.361 421.114 155.397 424.813C159.304 428.382 162.989 431.76 170.451 431.76C177.913 431.76 181.61 428.382 185.517 424.813C189.553 421.114 193.73 417.291 202.08 417.291C210.429 417.291 214.601 421.114 218.643 424.813C222.55 428.382 226.241 431.76 233.709 431.76V433.71Z" fill="#666666"/>
</g>
<mask id="mask2_90_847" style="mask-type:luminance" maskUnits="userSpaceOnUse" x="312" y="628" width="133" height="126">
<path d="M378.5 753.392C415.227 753.392 445 725.322 445 690.696C445 656.07 415.227 628 378.5 628C341.773 628 312 656.07 312 690.696C312 725.322 341.773 753.392 378.5 753.392Z" fill="white"/>
</mask>
<g mask="url(#mask2_90_847)">
<path d="M321.382 628.47H315.123V634.371H321.382V628.47Z" fill="#666666"/>
<path d="M341.338 628.47H335.079V634.371H341.338V628.47Z" fill="#666666"/>
<path d="M361.293 628.47H355.034V634.371H361.293V628.47Z" fill="#666666"/>
<path d="M381.249 628.47H374.99V634.371H381.249V628.47Z" fill="#666666"/>
<path d="M401.205 628.47H394.946V634.371H401.205V628.47Z" fill="#666666"/>
<path d="M421.154 628.47H414.895V634.371H421.154V628.47Z" fill="#666666"/>
<path d="M441.11 628.47H434.851V634.371H441.11V628.47Z" fill="#666666"/>
<path d="M321.382 645.474H315.123V651.375H321.382V645.474Z" fill="#666666"/>
<path d="M341.338 645.474H335.079V651.375H341.338V645.474Z" fill="#666666"/>
<path d="M361.293 645.474H355.034V651.375H361.293V645.474Z" fill="#666666"/>
<path d="M381.249 645.474H374.99V651.375H381.249V645.474Z" fill="#666666"/>
<path d="M401.205 645.474H394.946V651.375H401.205V645.474Z" fill="#666666"/>
<path d="M421.154 645.474H414.895V651.375H421.154V645.474Z" fill="#666666"/>
<path d="M441.11 645.474H434.851V651.375H441.11V645.474Z" fill="#666666"/>
<path d="M321.382 662.478H315.123V668.379H321.382V662.478Z" fill="#666666"/>
<path d="M341.338 662.478H335.079V668.379H341.338V662.478Z" fill="#666666"/>
<path d="M361.293 662.478H355.034V668.379H361.293V662.478Z" fill="#666666"/>
<path d="M381.249 662.478H374.99V668.379H381.249V662.478Z" fill="#666666"/>
<path d="M401.205 662.478H394.946V668.379H401.205V662.478Z" fill="#666666"/>
<path d="M421.154 662.478H414.895V668.379H421.154V662.478Z" fill="#666666"/>
<path d="M441.11 662.478H434.851V668.379H441.11V662.478Z" fill="#666666"/>
<path d="M321.382 679.482H315.123V685.383H321.382V679.482Z" fill="#666666"/>
<path d="M341.338 679.482H335.079V685.383H341.338V679.482Z" fill="#666666"/>
<path d="M361.293 679.482H355.034V685.383H361.293V679.482Z" fill="#666666"/>
<path d="M381.249 679.482H374.99V685.383H381.249V679.482Z" fill="#666666"/>
<path d="M401.205 679.482H394.946V685.383H401.205V679.482Z" fill="#666666"/>
<path d="M421.154 679.482H414.895V685.383H421.154V679.482Z" fill="#666666"/>
<path d="M441.11 679.482H434.851V685.383H441.11V679.482Z" fill="#666666"/>
<path d="M321.382 696.486H315.123V702.387H321.382V696.486Z" fill="#666666"/>
<path d="M341.338 696.486H335.079V702.387H341.338V696.486Z" fill="#666666"/>
<path d="M361.293 696.486H355.034V702.387H361.293V696.486Z" fill="#666666"/>
<path d="M381.249 696.486H374.99V702.387H381.249V696.486Z" fill="#666666"/>
<path d="M401.205 696.486H394.946V702.387H401.205V696.486Z" fill="#666666"/>
<path d="M421.154 696.486H414.895V702.387H421.154V696.486Z" fill="#666666"/>
<path d="M441.11 696.486H434.851V702.387H441.11V696.486Z" fill="#666666"/>
<path d="M321.382 713.489H315.123V719.39H321.382V713.489Z" fill="#666666"/>
<path d="M341.338 713.489H335.079V719.39H341.338V713.489Z" fill="#666666"/>
<path d="M361.293 713.489H355.034V719.39H361.293V713.489Z" fill="#666666"/>
<path d="M381.249 713.489H374.99V719.39H381.249V713.489Z" fill="#666666"/>
<path d="M401.205 713.489H394.946V719.39H401.205V713.489Z" fill="#666666"/>
<path d="M421.154 713.489H414.895V719.39H421.154V713.489Z" fill="#666666"/>
<path d="M441.11 713.489H434.851V719.39H441.11V713.489Z" fill="#666666"/>
<path d="M321.382 730.493H315.123V736.394H321.382V730.493Z" fill="#666666"/>
<path d="M341.338 730.493H335.079V736.394H341.338V730.493Z" fill="#666666"/>
<path d="M361.293 730.493H355.034V736.394H361.293V730.493Z" fill="#666666"/>
<path d="M381.249 730.493H374.99V736.394H381.249V730.493Z" fill="#666666"/>
<path d="M401.205 730.493H394.946V736.394H401.205V730.493Z" fill="#666666"/>
<path d="M421.154 730.493H414.895V736.394H421.154V730.493Z" fill="#666666"/>
<path d="M441.11 730.493H434.851V736.394H441.11V730.493Z" fill="#666666"/>
<path d="M321.382 747.491H315.123V753.392H321.382V747.491Z" fill="#666666"/>
<path d="M341.338 747.491H335.079V753.392H341.338V747.491Z" fill="#666666"/>
<path d="M361.293 747.491H355.034V753.392H361.293V747.491Z" fill="#666666"/>
<path d="M381.249 747.491H374.99V753.392H381.249V747.491Z" fill="#666666"/>
<path d="M401.205 747.491H394.946V753.392H401.205V747.491Z" fill="#666666"/>
<path d="M421.154 747.491H414.895V753.392H421.154V747.491Z" fill="#666666"/>
<path d="M441.11 747.491H434.851V753.392H441.11V747.491Z" fill="#666666"/>
</g>
<path d="M189.464 801.37L204.075 785.636L218.662 801.37L226.525 792.9L211.942 777.166L226.553 761.427L218.662 752.958L204.051 768.697L189.44 752.958L181.582 761.427L196.189 777.166L181.582 792.9L189.464 801.37ZM183.051 792.9L196.937 777.942L197.662 777.166L196.937 776.386L183.051 761.427L189.464 754.519L203.35 769.473L204.075 770.253L204.8 769.473L218.662 754.519L225.075 761.427L211.189 776.386L210.469 777.166L211.189 777.942L225.075 792.9L218.662 799.813L204.776 784.855L204.051 784.074L203.326 784.855L189.44 799.813L183.051 792.9Z" fill="#666666"/>
<path d="M140.178 801.37L154.784 785.636L169.395 801.37L177.258 792.9L162.646 777.166L177.258 761.427L169.395 752.958L154.784 768.697L140.178 752.958L132.315 761.427L146.922 777.166L132.315 792.9L140.178 801.37ZM133.76 792.9L147.622 777.942L148.347 777.166L147.622 776.386L133.736 761.427L140.154 754.519L154.04 769.473L154.76 770.253L155.485 769.473L169.371 754.519L175.784 761.427L161.902 776.386L161.178 777.166L161.902 777.942L175.784 792.9L169.371 799.813L155.485 784.855L154.76 784.074L154.04 784.855L140.154 799.813L133.76 792.9Z" fill="#666666"/>
<path d="M90.8864 801.37L105.498 785.636L120.104 801.37L127.942 792.9L113.336 777.166L127.942 761.427L120.08 752.958L105.474 768.697L90.8624 752.958L83 761.427L97.6112 777.166L83 792.9L90.8864 801.37ZM84.4736 792.9L98.3552 777.942L99.08 777.166L98.3552 776.386L84.4736 761.427L90.8864 754.519L104.773 769.473L105.498 770.253L106.218 769.473L120.104 754.519L126.502 761.427L112.616 776.386L111.891 777.166L112.616 777.942L126.502 792.9L120.085 799.813L106.198 784.855L105.478 784.074L104.754 784.855L90.8672 799.813L84.4736 792.9Z" fill="#666666"/>
</svg>
