<svg width="24" height="25" viewBox="0 0 24 25" fill="none" xmlns="http://www.w3.org/2000/svg">
<path fill-rule="evenodd" clip-rule="evenodd" d="M12 0.226562C5.37109 0.226562 0 5.71576 0 12.4904C0 17.9078 3.4375 22.5067 8.20703 24.1275C8.80859 24.2393 9.02734 23.8641 9.02734 23.5367C9.02734 23.2453 9.01562 22.4748 9.01172 21.4528C5.67188 22.1913 4.96875 19.808 4.96875 19.808C4.42188 18.3908 3.63672 18.0116 3.63672 18.0116C2.54688 17.2531 3.71875 17.269 3.71875 17.269C4.92188 17.3569 5.55469 18.5306 5.55469 18.5306C6.625 20.4069 8.36328 19.8639 9.04688 19.5525C9.15625 18.7581 9.46875 18.2192 9.80859 17.9118C7.14453 17.6044 4.34375 16.5504 4.34375 11.8517C4.34375 10.5103 4.8125 9.41648 5.57812 8.55817C5.45703 8.25078 5.04297 7.00123 5.69531 5.31256C5.69531 5.31256 6.70312 4.9852 8.99609 6.57008C9.95312 6.29862 10.9805 6.16288 12 6.15889C13.0195 6.16288 14.0469 6.29862 15.0039 6.57008C17.2969 4.9852 18.3008 5.31256 18.3008 5.31256C18.957 7.00123 18.5469 8.25078 18.4219 8.55817C19.1914 9.41648 19.6523 10.5103 19.6523 11.8517C19.6523 16.5624 16.8477 17.5964 14.1758 17.9038C14.6055 18.279 14.9883 19.0296 14.9883 20.1713C14.9883 21.8121 14.9766 23.1335 14.9766 23.5367C14.9766 23.8641 15.1914 24.2473 15.8008 24.1275C20.5664 22.5027 24 17.9078 24 12.4904C24 5.71576 18.6289 0.226562 12 0.226562Z" fill="#F5F5FA"/>
</svg>
