<svg width="23" height="136" viewBox="0 0 23 136" fill="none" xmlns="http://www.w3.org/2000/svg">
<path d="M11.3136 0L16.9728 6.83522L22.632 13.6704H11.3136H0L5.65922 6.83522L11.3136 0Z" fill="#666666"/>
<path d="M11.3136 30.3744L16.9728 37.2144L22.632 44.0496H11.3136H0L5.65922 37.2144L11.3136 30.3744Z" fill="#666666"/>
<path d="M11.3136 60.7537L16.9728 67.5889L22.632 74.4241H11.3136H0L5.65922 67.5889L11.3136 60.7537Z" fill="#666666"/>
<path d="M11.3136 91.1328L16.9728 97.968L22.632 104.803H11.3136H0L5.65922 97.968L11.3136 91.1328Z" fill="#666666"/>
<path d="M11.3136 121.512L16.9728 128.347L22.632 135.182H11.3136H0L5.65922 128.347L11.3136 121.512Z" fill="#666666"/>
</svg>
