<svg width="24" height="25" viewBox="0 0 24 25" fill="none" xmlns="http://www.w3.org/2000/svg">
<path d="M5.21739 24.15H0V7.83856H5.21739V24.15ZM2.60974 5.6637C1.16661 5.6637 0 4.44469 0 2.94404C0 1.44339 1.1687 0.226562 2.60974 0.226562C4.04765 0.226562 5.21739 1.44557 5.21739 2.94404C5.21739 4.44469 4.04765 5.6637 2.60974 5.6637ZM24 24.15H18.984V16.2118C18.984 14.3185 18.9496 11.8838 16.3763 11.8838C13.7645 11.8838 13.3628 13.9456 13.3628 16.0747V24.15H8.34783V7.8266H13.1624V10.0569H13.2303C13.9002 8.77375 15.5374 7.42099 17.9791 7.42099C23.0609 7.42099 24 10.8018 24 15.1972V24.15Z" fill="#F5F5FA"/>
</svg>
