<svg width="1440" height="810" viewBox="0 0 1440 810" fill="none" xmlns="http://www.w3.org/2000/svg">
<path d="M1440 0H0V810H1440V0Z" fill="#1A1313"/>
<mask id="mask0_79_178" style="mask-type:luminance" maskUnits="userSpaceOnUse" x="0" y="0" width="1440" height="810">
<path d="M1440 0H0V810H1440V0Z" fill="white"/>
</mask>
<g mask="url(#mask0_79_178)">
<mask id="mask1_79_178" style="mask-type:luminance" maskUnits="userSpaceOnUse" x="317" y="124" width="128" height="128">
<path d="M425.858 233.082C450.712 208.228 450.712 167.931 425.858 143.077C401.004 118.223 360.707 118.223 335.853 143.077C310.999 167.931 310.999 208.228 335.853 233.082C360.707 257.936 401.004 257.936 425.858 233.082Z" fill="white"/>
</mask>
<g mask="url(#mask1_79_178)">
<path d="M449.386 249.432C442.296 249.432 438.754 245.89 435.322 242.458C432.005 239.146 428.87 236.011 422.53 236.011C416.189 236.011 413.054 239.146 409.738 242.458C406.31 245.89 402.763 249.432 395.674 249.432C388.584 249.432 385.046 245.89 381.619 242.458C378.302 239.146 375.173 236.011 368.837 236.011C362.501 236.011 359.366 239.146 356.05 242.458C352.622 245.89 349.075 249.432 341.99 249.432C334.906 249.432 331.363 245.89 327.936 242.458C324.624 239.146 321.49 236.011 315.158 236.011V234.211C322.238 234.211 325.781 237.758 329.208 241.186C332.525 244.502 335.654 247.632 341.99 247.632C348.326 247.632 351.461 244.502 354.778 241.186C358.21 237.758 361.752 234.211 368.837 234.211C375.922 234.211 379.464 237.758 382.891 241.186C386.208 244.502 389.338 247.632 395.674 247.632C402.01 247.632 405.149 244.502 408.466 241.186C411.893 237.758 415.44 234.211 422.53 234.211C429.619 234.211 433.162 237.758 436.594 241.186C439.91 244.502 443.045 247.632 449.386 247.632V249.432Z" fill="#666666"/>
<path d="M449.386 228C442.296 228 438.754 224.458 435.322 221.026C432.005 217.714 428.87 214.579 422.53 214.579C416.189 214.579 413.054 217.714 409.738 221.026C406.31 224.458 402.763 228 395.674 228C388.584 228 385.046 224.472 381.6 221.04C378.283 217.728 375.154 214.594 368.818 214.594C362.482 214.594 359.347 217.728 356.03 221.04C352.603 224.472 349.056 228.014 341.971 228.014C334.886 228.014 331.344 224.472 327.917 221.04C324.605 217.728 321.47 214.594 315.139 214.594V212.794C322.219 212.794 325.762 216.341 329.189 219.768C332.506 223.085 335.635 226.214 341.971 226.214C348.307 226.214 351.442 223.085 354.758 219.768C358.19 216.341 361.733 212.794 368.818 212.794C375.902 212.794 379.445 216.341 382.872 219.768C386.189 223.085 389.318 226.214 395.654 226.214C401.99 226.214 405.13 223.085 408.446 219.768C411.874 216.341 415.421 212.794 422.51 212.794C429.6 212.794 433.142 216.341 436.574 219.768C439.891 223.085 443.026 226.214 449.366 226.214L449.386 228Z" fill="#666666"/>
<path d="M449.386 206.597C442.296 206.597 438.754 203.054 435.322 199.622C432.005 196.306 428.87 193.176 422.53 193.176C416.189 193.176 413.054 196.306 409.738 199.622C406.31 203.054 402.763 206.597 395.674 206.597C388.584 206.597 385.046 203.04 381.6 199.622C378.283 196.306 375.154 193.176 368.818 193.176C362.482 193.176 359.347 196.306 356.03 199.622C352.603 203.054 349.056 206.597 341.971 206.597C334.886 206.597 331.363 203.04 327.936 199.622C324.624 196.306 321.49 193.176 315.158 193.176V191.376C322.238 191.376 325.781 194.918 329.208 198.35C332.525 201.667 335.654 204.797 341.99 204.797C348.326 204.797 351.461 201.667 354.778 198.35C358.21 194.918 361.752 191.376 368.837 191.376C375.922 191.376 379.464 194.918 382.891 198.35C386.208 201.667 389.338 204.797 395.674 204.797C402.01 204.797 405.149 201.667 408.466 198.35C411.893 194.918 415.44 191.376 422.53 191.376C429.619 191.376 433.162 194.918 436.594 198.35C439.91 201.667 443.045 204.797 449.386 204.797V206.597Z" fill="#666666"/>
<path d="M449.386 185.179C442.296 185.179 438.754 181.632 435.322 178.205C432.005 174.888 428.87 171.758 422.53 171.758C416.189 171.758 413.054 174.888 409.738 178.205C406.31 181.632 402.763 185.179 395.674 185.179C388.584 185.179 385.046 181.632 381.6 178.205C378.283 174.888 375.154 171.758 368.818 171.758C362.482 171.758 359.347 174.888 356.03 178.205C352.603 181.632 349.056 185.179 341.971 185.179C334.886 185.179 331.344 181.632 327.917 178.205C324.605 174.888 321.47 171.758 315.139 171.758V169.958C322.219 169.958 325.762 173.501 329.189 176.933C332.506 180.25 335.635 183.379 341.971 183.379C348.307 183.379 351.442 180.25 354.758 176.933C358.19 173.501 361.733 169.958 368.818 169.958C375.902 169.958 379.445 173.501 382.872 176.933C386.189 180.25 389.318 183.379 395.654 183.379C401.99 183.379 405.13 180.25 408.446 176.933C411.874 173.501 415.421 169.958 422.51 169.958C429.6 169.958 433.142 173.501 436.574 176.933C439.91 180.25 443.04 183.36 449.386 183.36V185.179Z" fill="#666666"/>
<path d="M449.386 163.762C442.296 163.762 438.754 160.214 435.322 156.787C432.005 153.47 428.87 150.341 422.53 150.341C416.189 150.341 413.054 153.47 409.738 156.787C406.31 160.214 402.763 163.762 395.674 163.762C388.584 163.762 385.046 160.214 381.619 156.787C378.302 153.47 375.173 150.341 368.837 150.341C362.501 150.341 359.366 153.47 356.05 156.787C352.622 160.214 349.075 163.762 341.99 163.762C334.906 163.762 331.363 160.214 327.936 156.787C324.624 153.47 321.49 150.341 315.158 150.341V148.541C322.238 148.541 325.781 152.083 329.208 155.515C332.525 158.827 335.654 161.962 341.99 161.962C348.326 161.962 351.461 158.827 354.778 155.515C358.21 152.083 361.752 148.541 368.837 148.541C375.922 148.541 379.464 152.083 382.891 155.515C386.208 158.827 389.338 161.962 395.674 161.962C402.01 161.962 405.149 158.827 408.48 155.52C411.907 152.088 415.454 148.546 422.544 148.546C429.634 148.546 433.176 152.088 436.608 155.52C439.925 158.832 443.059 161.966 449.4 161.966L449.386 163.762Z" fill="#666666"/>
<path d="M449.386 142.344C442.296 142.344 438.754 138.797 435.322 135.37C432.005 132.053 428.87 128.918 422.53 128.918C416.189 128.918 413.054 132.053 409.738 135.37C406.31 138.797 402.763 142.344 395.674 142.344C388.584 142.344 385.046 138.797 381.6 135.36C378.283 132.043 375.154 128.909 368.818 128.909C362.482 128.909 359.347 132.043 356.03 135.36C352.603 138.787 349.056 142.334 341.971 142.334C334.886 142.334 331.363 138.797 327.936 135.36C324.624 132.043 321.49 128.909 315.158 128.909V127.109C322.238 127.109 325.781 130.656 329.208 134.088C332.525 137.4 335.654 140.534 341.99 140.534C348.326 140.534 351.461 137.4 354.778 134.088C358.21 130.656 361.752 127.109 368.837 127.109C375.922 127.109 379.464 130.656 382.891 134.088C386.208 137.4 389.338 140.534 395.674 140.534C402.01 140.534 405.149 137.4 408.466 134.088C411.893 130.656 415.44 127.109 422.53 127.109C429.619 127.109 433.162 130.656 436.594 134.088C439.91 137.4 443.045 140.534 449.386 140.534V142.344Z" fill="#666666"/>
</g>
<mask id="mask2_79_178" style="mask-type:luminance" maskUnits="userSpaceOnUse" x="1269" y="351" width="128" height="128">
<path d="M1332.91 478.723C1368.06 478.723 1396.55 450.229 1396.55 415.08C1396.55 379.931 1368.06 351.437 1332.91 351.437C1297.76 351.437 1269.26 379.931 1269.26 415.08C1269.26 450.229 1297.76 478.723 1332.91 478.723Z" fill="white"/>
</mask>
<g mask="url(#mask2_79_178)">
<path d="M1401.43 476.434C1394.35 476.434 1390.8 472.891 1387.37 469.459C1384.05 466.142 1380.92 463.013 1374.58 463.013C1368.24 463.013 1365.12 466.142 1361.78 469.44C1358.36 472.872 1354.81 476.414 1347.72 476.414C1340.64 476.414 1337.1 472.872 1333.67 469.44C1330.35 466.123 1327.22 462.994 1320.88 462.994C1314.54 462.994 1311.41 466.123 1308.1 469.44C1304.67 472.872 1301.13 476.414 1294.04 476.414C1286.96 476.414 1283.41 472.872 1279.99 469.44C1276.67 466.123 1273.54 462.994 1267.2 462.994V461.194C1274.29 461.194 1277.83 464.741 1281.26 468.168C1284.58 471.485 1287.71 474.614 1294.04 474.614C1300.38 474.614 1303.51 471.485 1306.83 468.168C1310.26 464.741 1313.8 461.194 1320.88 461.194C1327.96 461.194 1331.52 464.741 1334.94 468.168C1338.25 471.485 1341.39 474.614 1347.72 474.614C1354.06 474.614 1357.2 471.485 1360.51 468.168C1363.94 464.741 1367.49 461.194 1374.58 461.194C1381.66 461.194 1385.21 464.741 1388.64 468.168C1391.96 471.485 1395.09 474.614 1401.43 474.614V476.434Z" fill="#666666"/>
<path d="M1401.43 455.04C1394.35 455.04 1390.8 451.498 1387.37 448.066C1384.05 444.749 1380.92 441.619 1374.58 441.619C1368.24 441.619 1365.11 444.749 1361.78 448.066C1358.36 451.498 1354.81 455.04 1347.72 455.04C1340.64 455.04 1337.1 451.498 1333.67 448.066C1330.35 444.749 1327.22 441.619 1320.88 441.619C1314.54 441.619 1311.41 444.749 1308.1 448.066C1304.67 451.498 1301.13 455.04 1294.04 455.04C1286.96 455.04 1283.41 451.498 1279.99 448.066C1276.67 444.749 1273.54 441.619 1267.2 441.619V439.819C1274.29 439.819 1277.83 443.362 1281.26 446.794C1284.58 450.11 1287.71 453.24 1294.04 453.24C1300.38 453.24 1303.51 450.11 1306.83 446.794C1310.26 443.362 1313.8 439.819 1320.88 439.819C1327.96 439.819 1331.52 443.362 1334.94 446.794C1338.25 450.11 1341.39 453.24 1347.72 453.24C1354.06 453.24 1357.2 450.11 1360.51 446.794C1363.94 443.362 1367.49 439.819 1374.58 439.819C1381.66 439.819 1385.21 443.362 1388.64 446.794C1391.96 450.11 1395.09 453.24 1401.43 453.24V455.04Z" fill="#666666"/>
<path d="M1401.43 433.598C1394.35 433.598 1390.8 430.051 1387.37 426.624C1384.05 423.307 1380.92 420.178 1374.58 420.178C1368.24 420.178 1365.11 423.307 1361.78 426.624C1358.36 430.051 1354.81 433.598 1347.72 433.598C1340.64 433.598 1337.1 430.051 1333.67 426.624C1330.35 423.307 1327.22 420.178 1320.88 420.178C1314.54 420.178 1311.41 423.307 1308.1 426.624C1304.67 430.051 1301.13 433.598 1294.04 433.598C1286.96 433.598 1283.41 430.051 1279.99 426.624C1276.67 423.307 1273.54 420.178 1267.2 420.178V418.378C1274.29 418.378 1277.83 421.92 1281.26 425.352C1284.58 428.664 1287.71 431.798 1294.04 431.798C1300.38 431.798 1303.51 428.664 1306.83 425.352C1310.26 421.92 1313.8 418.378 1320.88 418.378C1327.96 418.378 1331.52 421.92 1334.94 425.352C1338.25 428.664 1341.39 431.798 1347.72 431.798C1354.06 431.798 1357.2 428.664 1360.51 425.352C1363.94 421.92 1367.49 418.378 1374.58 418.378C1381.66 418.378 1385.21 421.92 1388.64 425.352C1391.96 428.664 1395.09 431.798 1401.43 431.798V433.598Z" fill="#666666"/>
<path d="M1401.43 412.181C1394.35 412.181 1390.8 408.634 1387.37 405.206C1384.05 401.89 1380.92 398.76 1374.58 398.76C1368.24 398.76 1365.11 401.89 1361.78 405.206C1358.36 408.634 1354.81 412.181 1347.72 412.181C1340.64 412.181 1337.1 408.634 1333.67 405.206C1330.35 401.89 1327.22 398.76 1320.88 398.76C1314.54 398.76 1311.41 401.89 1308.1 405.206C1304.67 408.634 1301.13 412.181 1294.04 412.181C1286.96 412.181 1283.41 408.634 1279.99 405.206C1276.67 401.89 1273.54 398.76 1267.2 398.76V396.96C1274.29 396.96 1277.83 400.502 1281.26 403.934C1284.58 407.246 1287.71 410.381 1294.04 410.381C1300.38 410.381 1303.51 407.246 1306.83 403.934C1310.26 400.502 1313.8 396.96 1320.88 396.96C1327.96 396.96 1331.52 400.502 1334.94 403.934C1338.25 407.246 1341.39 410.381 1347.72 410.381C1354.06 410.381 1357.2 407.246 1360.51 403.934C1363.94 400.502 1367.49 396.96 1374.58 396.96C1381.66 396.96 1385.21 400.502 1388.64 403.934C1391.96 407.246 1395.09 410.381 1401.43 410.381V412.181Z" fill="#666666"/>
<path d="M1401.43 390.763C1394.35 390.763 1390.8 387.216 1387.37 383.789C1384.05 380.472 1380.92 377.338 1374.58 377.338C1368.24 377.338 1365.11 380.472 1361.78 383.789C1358.36 387.216 1354.81 390.763 1347.72 390.763C1340.64 390.763 1337.1 387.216 1333.67 383.789C1330.35 380.472 1327.22 377.338 1320.88 377.338C1314.54 377.338 1311.41 380.472 1308.1 383.789C1304.67 387.216 1301.13 390.763 1294.04 390.763C1286.96 390.763 1283.41 387.216 1279.99 383.789C1276.67 380.472 1273.54 377.338 1267.2 377.338V375.538C1274.29 375.538 1277.83 379.085 1281.26 382.517C1284.58 385.829 1287.71 388.963 1294.04 388.963C1300.38 388.963 1303.51 385.829 1306.83 382.517C1310.26 379.085 1313.8 375.538 1320.88 375.538C1327.96 375.538 1331.52 379.085 1334.94 382.517C1338.25 385.829 1341.39 388.963 1347.72 388.963C1354.06 388.963 1357.2 385.829 1360.51 382.517C1363.94 379.085 1367.49 375.538 1374.58 375.538C1381.66 375.538 1385.21 379.085 1388.64 382.517C1391.96 385.829 1395.09 388.963 1401.43 388.963V390.763Z" fill="#666666"/>
<path d="M1401.43 369.346C1394.35 369.346 1390.8 365.798 1387.37 362.371C1384.05 359.054 1380.92 355.92 1374.58 355.92C1368.24 355.92 1365.12 359.04 1361.78 362.371C1358.36 365.798 1354.81 369.346 1347.72 369.346C1340.64 369.346 1337.1 365.798 1333.67 362.371C1330.35 359.054 1327.22 355.92 1320.88 355.92C1314.54 355.92 1311.41 359.054 1308.1 362.371C1304.67 365.798 1301.13 369.346 1294.04 369.346C1286.96 369.346 1283.41 365.798 1279.99 362.371C1276.67 359.054 1273.54 355.92 1267.2 355.92V354.12C1274.29 354.12 1277.83 357.667 1281.26 361.094C1284.58 364.411 1287.71 367.546 1294.04 367.546C1300.38 367.546 1303.51 364.411 1306.83 361.094C1310.26 357.667 1313.8 354.12 1320.88 354.12C1327.96 354.12 1331.52 357.667 1334.94 361.094C1338.25 364.411 1341.39 367.546 1347.72 367.546C1354.06 367.546 1357.2 364.411 1360.51 361.094C1363.94 357.667 1367.49 354.12 1374.58 354.12C1381.66 354.12 1385.21 357.667 1388.64 361.094C1391.96 364.411 1395.09 367.546 1401.43 367.546V369.346Z" fill="#666666"/>
</g>
<mask id="mask3_79_178" style="mask-type:luminance" maskUnits="userSpaceOnUse" x="80" y="370" width="103" height="104">
<path d="M131.381 473.117C159.659 473.117 182.582 450.193 182.582 421.915C182.582 393.637 159.659 370.714 131.381 370.714C103.103 370.714 80.1792 393.637 80.1792 421.915C80.1792 450.193 103.103 473.117 131.381 473.117Z" fill="white"/>
</mask>
<g mask="url(#mask3_79_178)">
<path d="M87.4032 371.098H82.584V375.917H87.4032V371.098Z" fill="#666666"/>
<path d="M102.768 371.098H97.9487V375.917H102.768V371.098Z" fill="#666666"/>
<path d="M118.133 371.098H113.314V375.917H118.133V371.098Z" fill="#666666"/>
<path d="M133.498 371.098H128.678V375.917H133.498V371.098Z" fill="#666666"/>
<path d="M148.862 371.098H144.043V375.917H148.862V371.098Z" fill="#666666"/>
<path d="M164.223 371.098H159.403V375.917H164.223V371.098Z" fill="#666666"/>
<path d="M179.587 371.098H174.768V375.917H179.587V371.098Z" fill="#666666"/>
<path d="M87.4032 384.984H82.584V389.803H87.4032V384.984Z" fill="#666666"/>
<path d="M102.768 384.984H97.9487V389.803H102.768V384.984Z" fill="#666666"/>
<path d="M118.133 384.984H113.314V389.803H118.133V384.984Z" fill="#666666"/>
<path d="M133.498 384.984H128.678V389.803H133.498V384.984Z" fill="#666666"/>
<path d="M148.862 384.984H144.043V389.803H148.862V384.984Z" fill="#666666"/>
<path d="M164.223 384.984H159.403V389.803H164.223V384.984Z" fill="#666666"/>
<path d="M179.587 384.984H174.768V389.803H179.587V384.984Z" fill="#666666"/>
<path d="M87.4032 398.87H82.584V403.69H87.4032V398.87Z" fill="#666666"/>
<path d="M102.768 398.87H97.9487V403.69H102.768V398.87Z" fill="#666666"/>
<path d="M118.133 398.87H113.314V403.69H118.133V398.87Z" fill="#666666"/>
<path d="M133.498 398.87H128.678V403.69H133.498V398.87Z" fill="#666666"/>
<path d="M148.862 398.87H144.043V403.69H148.862V398.87Z" fill="#666666"/>
<path d="M164.223 398.87H159.403V403.69H164.223V398.87Z" fill="#666666"/>
<path d="M179.587 398.87H174.768V403.69H179.587V398.87Z" fill="#666666"/>
<path d="M87.4032 412.757H82.584V417.576H87.4032V412.757Z" fill="#666666"/>
<path d="M102.768 412.757H97.9487V417.576H102.768V412.757Z" fill="#666666"/>
<path d="M118.133 412.757H113.314V417.576H118.133V412.757Z" fill="#666666"/>
<path d="M133.498 412.757H128.678V417.576H133.498V412.757Z" fill="#666666"/>
<path d="M148.862 412.757H144.043V417.576H148.862V412.757Z" fill="#666666"/>
<path d="M164.223 412.757H159.403V417.576H164.223V412.757Z" fill="#666666"/>
<path d="M179.587 412.757H174.768V417.576H179.587V412.757Z" fill="#666666"/>
<path d="M87.4032 426.643H82.584V431.462H87.4032V426.643Z" fill="#666666"/>
<path d="M102.768 426.643H97.9487V431.462H102.768V426.643Z" fill="#666666"/>
<path d="M118.133 426.643H113.314V431.462H118.133V426.643Z" fill="#666666"/>
<path d="M133.498 426.643H128.678V431.462H133.498V426.643Z" fill="#666666"/>
<path d="M148.862 426.643H144.043V431.462H148.862V426.643Z" fill="#666666"/>
<path d="M164.223 426.643H159.403V431.462H164.223V426.643Z" fill="#666666"/>
<path d="M179.587 426.643H174.768V431.462H179.587V426.643Z" fill="#666666"/>
<path d="M87.4032 440.53H82.584V445.349H87.4032V440.53Z" fill="#666666"/>
<path d="M102.768 440.53H97.9487V445.349H102.768V440.53Z" fill="#666666"/>
<path d="M118.133 440.53H113.314V445.349H118.133V440.53Z" fill="#666666"/>
<path d="M133.498 440.53H128.678V445.349H133.498V440.53Z" fill="#666666"/>
<path d="M148.862 440.53H144.043V445.349H148.862V440.53Z" fill="#666666"/>
<path d="M164.223 440.53H159.403V445.349H164.223V440.53Z" fill="#666666"/>
<path d="M179.587 440.53H174.768V445.349H179.587V440.53Z" fill="#666666"/>
<path d="M87.4032 454.416H82.584V459.235H87.4032V454.416Z" fill="#666666"/>
<path d="M102.768 454.416H97.9487V459.235H102.768V454.416Z" fill="#666666"/>
<path d="M118.133 454.416H113.314V459.235H118.133V454.416Z" fill="#666666"/>
<path d="M133.498 454.416H128.678V459.235H133.498V454.416Z" fill="#666666"/>
<path d="M148.862 454.416H144.043V459.235H148.862V454.416Z" fill="#666666"/>
<path d="M164.223 454.416H159.403V459.235H164.223V454.416Z" fill="#666666"/>
<path d="M179.587 454.416H174.768V459.235H179.587V454.416Z" fill="#666666"/>
<path d="M87.4032 468.298H82.584V473.117H87.4032V468.298Z" fill="#666666"/>
<path d="M102.768 468.298H97.9487V473.117H102.768V468.298Z" fill="#666666"/>
<path d="M118.133 468.298H113.314V473.117H118.133V468.298Z" fill="#666666"/>
<path d="M133.498 468.298H128.678V473.117H133.498V468.298Z" fill="#666666"/>
<path d="M148.862 468.298H144.043V473.117H148.862V468.298Z" fill="#666666"/>
<path d="M164.223 468.298H159.403V473.117H164.223V468.298Z" fill="#666666"/>
<path d="M179.587 468.298H174.768V473.117H179.587V468.298Z" fill="#666666"/>
</g>
<path d="M273.23 317.112L278.89 323.947L284.549 330.782H273.23H261.917L267.576 323.947L273.23 317.112Z" fill="#666666"/>
<path d="M273.23 347.486L278.89 354.326L284.549 361.162H273.23H261.917L267.576 354.326L273.23 347.486Z" fill="#666666"/>
<path d="M273.23 377.866L278.89 384.701L284.549 391.536H273.23H261.917L267.576 384.701L273.23 377.866Z" fill="#666666"/>
<path d="M273.23 408.245L278.89 415.08L284.549 421.915H273.23H261.917L267.576 415.08L273.23 408.245Z" fill="#666666"/>
<path d="M273.23 438.624L278.89 445.459L284.549 452.294H273.23H261.917L267.576 445.459L273.23 438.624Z" fill="#666666"/>
<path d="M1348.46 685.099L1354.12 691.934L1359.78 698.77H1348.46H1337.15L1342.8 691.934L1348.46 685.099Z" fill="#F5F5FA"/>
<path d="M1348.46 715.478L1354.12 722.314L1359.78 729.149H1348.46H1337.15L1342.8 722.314L1348.46 715.478Z" fill="#F5F5FA"/>
<path d="M1348.46 745.858L1354.12 752.693L1359.78 759.528H1348.46H1337.15L1342.8 752.693L1348.46 745.858Z" fill="#F5F5FA"/>
<path d="M1348.46 776.237L1354.12 783.072L1359.78 789.907H1348.46H1337.15L1342.8 783.072L1348.46 776.237Z" fill="#F5F5FA"/>
<mask id="mask4_79_178" style="mask-type:luminance" maskUnits="userSpaceOnUse" x="765" y="670" width="182" height="92">
<path d="M946.027 670.992H765.259V761.376H946.027V670.992Z" fill="white"/>
</mask>
<g mask="url(#mask4_79_178)">
<path d="M778.939 686.88L749.05 665.947L750.082 664.474L778.939 684.687L808.315 664.114L837.696 684.687L867.086 664.114L896.472 684.687L925.877 664.114L955.795 685.047L954.763 686.52L925.877 666.312L896.472 686.88L867.086 666.312L837.696 686.88L808.315 666.312L778.939 686.88Z" fill="#666666"/>
<path d="M778.939 708.667L749.049 687.735L750.081 686.261L778.939 706.474L808.315 685.901L837.696 706.474L867.086 685.901L896.472 706.474L925.877 685.901L955.795 706.834L954.763 708.307L925.877 688.095L896.472 708.667L867.086 688.095L837.696 708.667L808.315 688.095L778.939 708.667Z" fill="#666666"/>
<path d="M778.939 730.455L749.049 709.522L750.081 708.048L778.939 728.256L808.315 707.688L837.696 728.256L867.086 707.688L896.472 728.256L925.877 707.688L955.795 728.616L954.763 730.095L925.877 709.882L896.472 730.455L867.086 709.882L837.696 730.455L808.315 709.882L778.939 730.455Z" fill="#666666"/>
<path d="M778.939 752.242L749.049 731.309L750.081 729.835L778.939 750.043L808.315 729.471L837.696 750.043L867.086 729.471L896.472 750.043L925.877 729.471L955.795 750.403L954.763 751.882L925.877 731.669L896.472 752.242L867.086 731.669L837.696 752.242L808.315 731.669L778.939 752.242Z" fill="#666666"/>
<path d="M778.939 774.029L749.049 753.091L750.081 751.622L778.939 771.831L808.315 751.258L837.696 771.831L867.086 751.258L896.472 771.831L925.877 751.258L955.795 772.191L954.763 773.669L925.877 753.456L896.472 774.029L867.086 753.456L837.696 774.029L808.315 753.456L778.939 774.029Z" fill="#666666"/>
</g>
<mask id="mask5_79_178" style="mask-type:luminance" maskUnits="userSpaceOnUse" x="482" y="-30" width="182" height="91">
<path d="M663.168 -29.6976H482.4V60.6864H663.168V-29.6976Z" fill="white"/>
</mask>
<g mask="url(#mask5_79_178)">
<path d="M496.085 7.97764L466.19 -12.9552L467.227 -14.4288L496.085 5.78404L525.461 -14.7888L554.842 5.78404L584.232 -14.7888L613.618 5.78404L643.018 -14.7888L672.941 6.14404L671.904 7.61764L643.018 -12.5904L613.618 7.97764L584.232 -12.5904L554.842 7.97764L525.461 -12.5904L496.085 7.97764Z" fill="#666666"/>
<path d="M496.085 29.7648L466.19 8.83204L467.227 7.35844L496.085 27.5664L525.461 6.99844L554.842 27.5664L584.232 6.99844L613.618 27.5664L643.018 6.99844L672.941 27.9264L671.904 29.4048L643.018 9.19204L613.618 29.7648L584.232 9.19204L554.842 29.7648L525.461 9.19204L496.085 29.7648Z" fill="#666666"/>
<path d="M496.085 51.552L466.19 30.6192L467.227 29.1456L496.085 49.3536L525.461 28.7808L554.842 49.3536L584.232 28.7808L613.618 49.3536L643.018 28.7808L672.941 49.7136L671.904 51.192L643.018 30.9792L613.618 51.552L584.232 30.9792L554.842 51.552L525.461 30.9792L496.085 51.552Z" fill="#666666"/>
<path d="M496.085 73.3393L466.19 52.4065L467.227 50.9329L496.085 71.1409L525.461 50.5681L554.842 71.1409L584.232 50.5681L613.618 71.1409L643.018 50.5681L672.941 71.5009L671.904 72.9793L643.018 52.7665L613.618 73.3393L584.232 52.7665L554.842 73.3393L525.461 52.7665L496.085 73.3393Z" fill="#666666"/>
</g>
<path d="M760.104 496.454H739.464V475.814H728.347V496.454H707.707V507.576H728.347V528.216H739.464V507.576H760.104V496.454ZM759.082 506.534H738.442V527.174H729.37V506.534H708.73V497.462H729.37V476.822H738.442V497.462H759.082V506.534Z" fill="#666666"/>
<path d="M583.2 203.544H562.56V182.88H551.438V203.52H530.798V214.642H551.438V235.282H562.56V214.642H583.2V203.544ZM582.178 213.624H561.538V234.288H552.466V213.638H531.802V204.571H552.466V183.907H561.538V204.571H582.178V213.624Z" fill="#666666"/>
<path d="M343.435 740.299H322.795V719.659H311.654V740.299H291.014V751.416H311.654V772.056H322.771V751.416H343.411L343.435 740.299ZM342.408 750.379H321.768V771.019H312.696V750.379H292.056V741.307H312.696V720.667H321.768V741.307H342.408V750.379Z" fill="#666666"/>
<path d="M1295.48 113.28H1274.84V92.64H1263.72V113.28H1243.08V124.402H1263.72V145.042H1274.84V124.402H1295.48V113.28ZM1294.46 123.36H1273.82V144H1264.75V123.36H1244.11V114.288H1264.75V93.648H1273.82V114.288H1294.46V123.36Z" fill="#666666"/>
<path d="M1081.46 125.136L1066.86 110.525L1081.46 95.9137L1073.6 88.0513L1059 102.662L1044.38 88.0513L1036.52 95.9137L1051.13 110.525L1036.52 125.136L1044.38 132.998L1059 118.387L1073.6 132.998L1081.46 125.136ZM1073.6 131.549L1059.72 117.662L1059 116.938L1058.27 117.662L1044.38 131.549L1037.97 125.136L1051.86 111.25L1052.58 110.525L1051.86 109.8L1037.97 95.9137L1044.38 89.5009L1058.27 103.387L1059 104.112L1059.72 103.387L1073.6 89.5009L1080 95.9137L1066.11 109.8L1065.39 110.525L1066.11 111.25L1080 125.136L1073.6 131.549Z" fill="#666666"/>
<path d="M1081.46 174.422L1066.86 159.84L1081.46 145.229L1073.6 137.366L1059 151.978L1044.38 137.366L1036.52 145.229L1051.13 159.84L1036.52 174.446L1044.38 182.309L1059 167.702L1073.6 182.309L1081.46 174.422ZM1073.6 180.84L1059.72 166.954L1059 166.229L1058.27 166.954L1044.38 180.84L1037.97 174.422L1051.86 160.536L1052.58 159.816L1051.86 159.091L1037.97 145.205L1044.38 138.792L1058.27 152.678L1059 153.398L1059.72 152.678L1073.6 138.792L1080 145.205L1066.11 159.091L1065.41 159.84L1066.13 160.56L1080 174.422L1073.6 180.84Z" fill="#666666"/>
<path d="M1081.46 223.714L1066.86 209.102L1081.46 194.496L1073.6 186.634L1059 201.24L1044.38 186.634L1036.52 194.496L1051.13 209.102L1036.52 223.714L1044.38 231.576L1059 216.96L1073.6 231.571L1081.46 223.714ZM1073.6 230.126L1059.72 216.245L1059 215.52L1058.27 216.245L1044.38 230.126L1037.97 223.714L1051.86 209.827L1052.58 209.102L1051.86 208.382L1037.97 194.496L1044.38 188.078L1058.27 201.965L1059 202.69L1059.72 201.965L1073.6 188.078L1080 194.496L1066.11 208.382L1065.39 209.102L1066.11 209.827L1080 223.714L1073.6 230.126Z" fill="#666666"/>
<path d="M153.85 609.038L139.243 594.427L153.85 579.84L145.987 571.978L131.381 586.56L116.77 571.949L108.907 579.84L123.518 594.451L108.907 609.062L116.77 616.92L131.381 602.314L145.987 616.92L153.85 609.038ZM145.987 615.451L132.101 601.565L131.381 600.84L130.656 601.565L116.77 615.451L110.357 609.038L124.238 595.152L124.963 594.427L124.238 593.702L110.357 579.84L116.77 573.427L130.656 587.314L131.381 588.034L132.101 587.314L145.987 573.427L152.405 579.84L138.518 593.726L137.794 594.451L138.518 595.176L152.405 609.062L145.987 615.451Z" fill="#666666"/>
<path d="M153.85 658.325L139.243 643.718L153.85 629.107L145.987 621.245L131.381 635.856L116.77 621.245L108.907 629.107L123.518 643.718L108.907 658.325L116.77 666.187L131.381 651.581L145.987 666.187L153.85 658.325ZM145.987 664.742L132.101 650.88L131.381 650.155L130.656 650.88L116.77 664.766L110.357 658.349L124.238 644.462L124.963 643.742L124.238 643.018L110.357 629.131L116.77 622.718L130.656 636.6L131.381 637.325L132.101 636.6L145.987 622.718L152.405 629.131L138.518 643.018L137.794 643.742L138.518 644.462L152.405 658.349L145.987 664.742Z" fill="#666666"/>
<path d="M153.85 707.616L139.243 693.005L153.85 678.398L145.987 670.56L131.381 685.166L116.77 670.56L108.907 678.422L123.518 693.029L108.907 707.64L116.77 715.502L131.381 700.891L145.987 715.502L153.85 707.616ZM145.987 714.029L132.101 700.147L131.381 699.422L130.656 700.147L116.77 714.029L110.357 707.616L124.238 693.73L124.963 693.005L124.238 692.285L110.357 678.398L116.77 672L130.656 685.886L131.381 686.611L132.101 685.886L145.987 672L152.405 678.418L138.518 692.304L137.794 693.024L138.518 693.749L152.405 707.635L145.987 714.029Z" fill="#666666"/>
<path d="M283.262 60.6865H195.182V69.9457H283.262V60.6865Z" fill="#F5F5FA"/>
<path d="M304.214 60.6865H294.955V69.9457H304.214V60.6865Z" fill="#F5F5FA"/>
<path d="M324.149 60.6865H314.89V69.9457H324.149V60.6865Z" fill="#F5F5FA"/>
<path d="M344.083 60.6865H334.824V69.9457H344.083V60.6865Z" fill="#F5F5FA"/>
<path d="M733.627 579.422H645.547V588.682H733.627V579.422Z" fill="#F5F5FA"/>
<path d="M754.579 579.422H745.32V588.682H754.579V579.422Z" fill="#F5F5FA"/>
<path d="M774.514 579.422H765.254V588.682H774.514V579.422Z" fill="#F5F5FA"/>
<path d="M794.448 579.422H785.189V588.682H794.448V579.422Z" fill="#F5F5FA"/>
<path d="M1301.28 276.173H1213.2V285.432H1301.28V276.173Z" fill="#F5F5FA"/>
<path d="M1322.23 276.173H1312.97V285.432H1322.23V276.173Z" fill="#F5F5FA"/>
<path d="M1342.16 276.173H1332.9V285.432H1342.16V276.173Z" fill="#F5F5FA"/>
<path d="M1362.1 276.173H1352.84V285.432H1362.1V276.173Z" fill="#F5F5FA"/>
<path d="M556.973 465.187H535.555C535.555 451.334 530.052 438.048 520.256 428.252C510.461 418.457 497.175 412.954 483.322 412.954C469.468 412.954 456.183 418.457 446.387 428.252C436.591 438.048 431.088 451.334 431.088 465.187H409.67C409.67 424.574 442.709 391.536 483.317 391.536C523.925 391.536 556.973 424.574 556.973 465.187Z" fill="#F5F5FA"/>
<path d="M555.427 466.718C554.606 505.781 522.576 537.312 483.322 537.312C444.067 537.312 412.032 505.781 411.216 466.718H429.6C429.951 480.739 435.767 494.068 445.807 503.861C455.848 513.653 469.318 519.135 483.343 519.135C497.369 519.135 510.839 513.653 520.879 503.861C530.92 494.068 536.736 480.739 537.086 466.718H555.451M556.997 465.187H535.579C535.579 479.04 530.076 492.326 520.28 502.122C510.485 511.918 497.199 517.421 483.346 517.421C469.492 517.421 456.207 511.918 446.411 502.122C436.615 492.326 431.112 479.04 431.112 465.187H409.67C409.67 505.8 442.709 538.838 483.322 538.838C523.934 538.838 556.973 505.8 556.973 465.187H556.997Z" fill="#666666"/>
<path d="M900.845 251.726H880.219V188.098H752.962V251.726H732.336V167.477H900.845V251.726Z" fill="#666666"/>
<path d="M899.299 253.272V334.426H733.886V253.272H751.416V316.896H881.76V253.272H899.29M900.835 251.722H880.195V315.36H752.962V251.722H732.322V335.971H900.802V251.722H900.835Z" fill="#666666"/>
<path d="M537.624 672.672V688.714L551.515 696.734L565.406 688.714V672.672L551.515 664.651L537.624 672.672Z" fill="#666666"/>
<path d="M551.52 705.25L530.251 692.971V668.414L551.52 656.16L572.784 668.438V692.995L551.52 705.25ZM531.586 692.198L551.52 703.718L571.454 692.198V669.187L551.52 657.667L531.586 669.187V692.198Z" fill="#666666"/>
<path d="M551.52 716.184L520.8 698.424V662.933L551.52 645.173L582.24 662.933V698.424L551.52 716.184ZM522.115 697.67L551.52 714.643L580.915 697.67V663.715L551.52 646.742L522.115 663.715V697.67Z" fill="#666666"/>
<path d="M551.52 727.166L511.267 703.93V657.456L551.52 634.219L591.763 657.456V703.93L551.52 727.166ZM512.602 703.166L551.52 725.635L590.434 703.166V658.238L551.52 635.76L512.602 658.229V703.166Z" fill="#666666"/>
<path d="M932.131 52.6656V68.7072L946.022 76.728L959.913 68.7072V52.6656L946.022 44.6448L932.131 52.6656Z" fill="#666666"/>
<path d="M946.027 85.2432L924.758 72.96V48.408L946.027 36.1296L967.291 48.408V72.96L946.027 85.2432ZM926.093 72.192L946.027 83.712L965.962 72.192V49.176L946.027 37.656L926.093 49.176V72.192Z" fill="#666666"/>
<path d="M946.027 96.1776L915.307 78.4176V42.9408L946.027 25.1808L976.747 42.9408V78.432L946.027 96.1776ZM916.622 77.664L946.027 94.6368L975.422 77.664V43.7088L946.027 26.736L916.622 43.7088V77.664Z" fill="#666666"/>
<path d="M946.027 107.16L905.76 83.9232V37.44L946.008 14.2032L986.27 37.44V83.9136L946.027 107.16ZM907.109 83.16L946.027 105.6L984.96 83.1504V38.2224L946.046 15.7536L907.128 38.2224L907.109 83.16Z" fill="#666666"/>
<path d="M195.302 186.437L55.6991 267.038L-83.9089 347.64V186.437V25.2337L55.6991 105.835L195.302 186.437Z" fill="#666666"/>
<path d="M-8.67847 349.2V23.6737L273.235 186.437L-8.67847 349.2ZM-6.87847 26.7937V346.08L269.635 186.437L-6.87847 26.7937Z" fill="#F5F5FA"/>
<path d="M1081.46 710.227V384.701L1363.38 547.464L1081.46 710.227ZM1083.26 387.84V707.131L1359.78 547.483L1083.26 387.84Z" fill="#FFEB3B"/>
<path d="M1287.65 547.464L1148.04 628.066L1008.43 708.667V547.464V386.261L1148.04 466.862L1287.65 547.464Z" fill="#FFC107" fill-opacity="0.75"/>
</g>
</svg>
