<svg width="23" height="136" viewBox="0 0 23 136" fill="none" xmlns="http://www.w3.org/2000/svg">
<path d="M11.3185 135.183L5.65926 128.347L6.88652e-05 121.512H11.3185H22.6321L16.9729 128.347L11.3185 135.183Z" fill="#FFEB3B"/>
<path d="M11.3185 104.808L5.65926 97.9682L6.88652e-05 91.133H11.3185H22.6321L16.9729 97.9682L11.3185 104.808Z" fill="#FFEB3B"/>
<path d="M11.3185 74.429L5.65926 67.5938L6.88652e-05 60.7585H11.3185H22.6321L16.9729 67.5938L11.3185 74.429Z" fill="#FFEB3B"/>
<path d="M11.3185 44.0498L5.65926 37.2146L6.88652e-05 30.3794L11.3185 30.3794H22.6321L16.9729 37.2146L11.3185 44.0498Z" fill="#FFEB3B"/>
<path d="M11.3185 13.6705L5.65926 6.83534L6.88652e-05 0.000141058L11.3185 0.000141058L22.6321 0.000141058L16.9729 6.83534L11.3185 13.6705Z" fill="#FFEB3B"/>
</svg>
